# xmcd
#
# Track frame offsets: 
#        150
#        2988
#        29521
#        52018
#        69582
#        91090
#        118706
#        136701
#        171165
#        197210
#        226117
#        246610
#        270469
#
# Disc length: 4033 seconds
#
# Revision: 0
# Processed by: cddbd v1.5.2PL0 Copyright (c) Steve Scherf et al.
# Submitted via: ExactAudioCopy v1.3
#
DISCID=b30fbf0d
DTITLE=Celso Salim - Going Out Tonight
DYEAR=2003
DGENRE=Blues Rock, Country Rock
TTITLE0=Intro
TTITLE1=Going Out Tonight
TTITLE2=Sweet Brown Eyes
TTITLE3=One for the Winter
TTITLE4=Slow Down
TTITLE5=Cold Hearted Lady
TTITLE6=What Kind of Spell (You Put On Me)
TTITLE7=See You Tomorrow
TTITLE8=Ain't Gonna Fade Away
TTITLE9=Daydreamin'
TTITLE10=Don't Bother Me
TTITLE11=Funky Mama
TTITLE12=Gonna Stay
EXTD=
EXTT0=
EXTT1=
EXTT2=
EXTT3=
EXTT4=
EXTT5=
EXTT6=
EXTT7=
EXTT8=
EXTT9=
EXTT10=
EXTT11=
EXTT12=
PLAYORDER=
